ISO-10303-21;
HEADER;
FILE_DESCRIPTION (( 'STEP AP203' ),
    '1' );
FILE_NAME ('9262K275_Oil-Resistant Buna-N O-Ring.STEP',
    '2026-01-18T15:05:44',
    ( 'McMaster Carr Supply' ),
    ( 'McMaster Carr Supply' ),
    'SwSTEP 2.0',
    'SolidWorks 2024',
    '' );
FILE_SCHEMA (( 'CONFIG_CONTROL_DESIGN' ));
ENDSEC;

DATA;
#1 = AXIS2_PLACEMENT_3D ( 'NONE', #129, #116, #108 ) ;
#2 = APPROVAL ( #110, 'UNSPECIFIED' ) ;
#3 = CALENDAR_DATE ( 2026, 18, 1 ) ;
#4 = LOCAL_TIME ( 9, 5, 44.00000000000000000, #176 ) ;
#5 = EDGE_LOOP ( 'NONE', ( #126, #143, #36, #56 ) ) ;
#6 = DATE_AND_TIME ( #37, #163 ) ;
#7 = CARTESIAN_POINT ( 'NONE',  ( -15.49999999999999645, 0.000000000000000000, 9.082315036638009460E-15 ) ) ;
#8 = SHAPE_DEFINITION_REPRESENTATION ( #170, #166 ) ;
#9 = ORIENTED_EDGE ( 'NONE', *, *, #72, .F. ) ;
#10 = COORDINATED_UNIVERSAL_TIME_OFFSET ( 6, 0, .BEHIND. ) ;
#11 = DIRECTION ( 'NONE',  ( -1.000000000000000000, 0.000000000000000000, 3.061616997868382648E-16 ) ) ;
#12 = CC_DESIGN_PERSON_AND_ORGANIZATION_ASSIGNMENT ( #157, #54, ( #15 ) ) ;
#13 = DIRECTION ( 'NONE',  ( -1.000000000000000000, -1.224646799147353700E-16, 0.000000000000000000 ) ) ;
#14 = AXIS2_PLACEMENT_3D ( 'NONE', #118, #26, #191 ) ;
#15 = PRODUCT_DEFINITION ( 'UNKNOWN', '', #146, #142 ) ;
#16 = DIRECTION ( 'NONE',  ( 0.000000000000000000, -1.000000000000000000, 0.000000000000000000 ) ) ;
#17 = APPROVAL_ROLE ( '' ) ;
#18 = ADVANCED_FACE ( 'NONE', ( #105 ), #32, .T. ) ;
#19 = AXIS2_PLACEMENT_3D ( 'NONE', #45, #161, #192 ) ;
#20 = CALENDAR_DATE ( 2026, 18, 1 ) ;
#21 = ORIENTED_EDGE ( 'NONE', *, *, #89, .T. ) ;
#22 = VERTEX_POINT ( 'NONE', #7 ) ;
#23 = DATE_TIME_ROLE ( 'creation_date' ) ;
#24 = DIRECTION ( 'NONE',  ( -3.061616997868382648E-16, -0.000000000000000000, -1.000000000000000000 ) ) ;
#25 = CC_DESIGN_PERSON_AND_ORGANIZATION_ASSIGNMENT ( #136, #66, ( #34 ) ) ;
#26 = DIRECTION ( 'NONE',  ( -3.061616997868382648E-16, -0.000000000000000000, -1.000000000000000000 ) ) ;
#27 = EDGE_CURVE ( 'NONE', #22, #93, #160, .T. ) ;
#28 = TOROIDAL_SURFACE ( 'NONE', #138, 14.00000000000000000, 1.499999999999996669 ) ;
#29 = CARTESIAN_POINT ( 'NONE',  ( 0.000000000000000000, 0.000000000000000000, 0.000000000000000000 ) ) ;
#30 = APPLICATION_PROTOCOL_DEFINITION ( 'international standard', 'config_control_design', 1994, #159 ) ;
#31 = PERSON ( 'UNSPECIFIED', 'UNSPECIFIED', 'UNSPECIFIED', ('UNSPECIFIED'), ('UNSPECIFIED'), ('UNSPECIFIED') ) ;
#32 = TOROIDAL_SURFACE ( 'NONE', #100, 14.00000000000000000, 1.499999999999996669 ) ;
#33 = LOCAL_TIME ( 9, 5, 44.00000000000000000, #99 ) ;
#34 = PRODUCT ( '9262K275_Oil-Resistant Buna-N O-Ring', '9262K275_Oil-Resistant Buna-N O-Ring', '', ( #85 ) ) ;
#35 = APPROVAL_STATUS ( 'not_yet_approved' ) ;
#36 = ORIENTED_EDGE ( 'NONE', *, *, #94, .T. ) ;
#37 = CALENDAR_DATE ( 2026, 18, 1 ) ;
#38 = APPLICATION_CONTEXT ( 'configuration controlled 3d designs of mechanical parts and assemblies' ) ;
#39 = ORIENTED_EDGE ( 'NONE', *, *, #44, .T. ) ;
#40 = ORIENTED_EDGE ( 'NONE', *, *, #72, .T. ) ;
#41 = AXIS2_PLACEMENT_3D ( 'NONE', #180, #16, #97 ) ;
#42 = PERSON_AND_ORGANIZATION ( #31, #58 ) ;
#43 = CARTESIAN_POINT ( 'NONE',  ( 14.00000000000000000, 1.714505518806294638E-15, 5.054489292628175744E-17 ) ) ;
#44 = EDGE_CURVE ( 'NONE', #76, #22, #111, .T. ) ;
#45 = CARTESIAN_POINT ( 'NONE',  ( 5.624099184981953440E-32, 0.000000000000000000, 4.520505709814120458E-15 ) ) ;
#46 = CARTESIAN_POINT ( 'NONE',  ( 15.49999999999999645, 1.898202538678397163E-15, -4.086976567539742839E-16 ) ) ;
#47 = CARTESIAN_POINT ( 'NONE',  ( 12.50000000000000355, 1.530808498934191916E-15, 5.054489292628175744E-17 ) ) ;
#48 = CC_DESIGN_DATE_AND_TIME_ASSIGNMENT ( #6, #23, ( #15 ) ) ;
#49 = UNCERTAINTY_MEASURE_WITH_UNIT (LENGTH_MEASURE( 1.000000000000000082E-05 ), #162, 'distance_accuracy_value', 'NONE');
#50 =( NAMED_UNIT ( * ) PLANE_ANGLE_UNIT ( ) SI_UNIT ( $, .RADIAN. ) );
#51 = TOROIDAL_SURFACE ( 'NONE', #153, 14.00000000000000000, 1.499999999999996669 ) ;
#52 = PERSON_AND_ORGANIZATION ( #31, #58 ) ;
#53 = EDGE_CURVE ( 'NONE', #93, #22, #132, .T. ) ;
#54 = PERSON_AND_ORGANIZATION_ROLE ( 'creator' ) ;
#55 = EDGE_CURVE ( 'NONE', #76, #114, #175, .T. ) ;
#56 = ORIENTED_EDGE ( 'NONE', *, *, #53, .T. ) ;
#57 = COORDINATED_UNIVERSAL_TIME_OFFSET ( 6, 0, .BEHIND. ) ;
#58 = ORGANIZATION ( 'UNSPECIFIED', 'UNSPECIFIED', '' ) ;
#59 = CALENDAR_DATE ( 2026, 18, 1 ) ;
#60 = AXIS2_PLACEMENT_3D ( 'NONE', #117, #24, #151 ) ;
#61 = DIRECTION ( 'NONE',  ( 0.000000000000000000, -1.000000000000000000, 0.000000000000000000 ) ) ;
#62 = DIRECTION ( 'NONE',  ( 0.000000000000000000, 0.000000000000000000, -1.000000000000000000 ) ) ;
#63 = MANIFOLD_SOLID_BREP ( 'Revolve1', #137 ) ;
#64 = DIRECTION ( 'NONE',  ( -3.061616997868382648E-16, -0.000000000000000000, -1.000000000000000000 ) ) ;
#65 = LOCAL_TIME ( 9, 5, 44.00000000000000000, #90 ) ;
#66 = PERSON_AND_ORGANIZATION_ROLE ( 'design_owner' ) ;
#67 = APPROVAL ( #35, 'UNSPECIFIED' ) ;
#68 = SECURITY_CLASSIFICATION ( '', '', #112 ) ;
#69 = AXIS2_PLACEMENT_3D ( 'NONE', #43, #178, #13 ) ;
#70 = EDGE_LOOP ( 'NONE', ( #173, #40, #172, #123 ) ) ;
#71 = APPROVAL_ROLE ( '' ) ;
#72 = EDGE_CURVE ( 'NONE', #22, #76, #121, .T. ) ;
#73 = PERSON_AND_ORGANIZATION ( #31, #58 ) ;
#74 = CARTESIAN_POINT ( 'NONE',  ( 0.000000000000000000, 0.000000000000000000, 4.336808689942017736E-15 ) ) ;
#75 = APPROVAL_DATE_TIME ( #174, #177 ) ;
#76 = VERTEX_POINT ( 'NONE', #46 ) ;
#77 = EDGE_CURVE ( 'NONE', #114, #76, #169, .T. ) ;
#78 = PERSON_AND_ORGANIZATION ( #31, #58 ) ;
#79 = CARTESIAN_POINT ( 'NONE',  ( 0.000000000000000000, 0.000000000000000000, 4.336808689942017736E-15 ) ) ;
#80 = CARTESIAN_POINT ( 'NONE',  ( -14.00000000000000000, 0.000000000000000000, 8.623072486957754232E-15 ) ) ;
#81 = ADVANCED_FACE ( 'NONE', ( #83 ), #28, .T. ) ;
#82 = FACE_OUTER_BOUND ( 'NONE', #155, .T. ) ;
#83 = FACE_OUTER_BOUND ( 'NONE', #70, .T. ) ;
#84 = LOCAL_TIME ( 9, 5, 44.00000000000000000, #10 ) ;
#85 = MECHANICAL_CONTEXT ( 'NONE', #38, 'mechanical' ) ;
#86 = ADVANCED_FACE ( 'NONE', ( #149 ), #87, .T. ) ;
#87 = TOROIDAL_SURFACE ( 'NONE', #60, 14.00000000000000000, 1.499999999999996669 ) ;
#88 = APPROVAL_PERSON_ORGANIZATION ( #42, #67, #104 ) ;
#89 = EDGE_CURVE ( 'NONE', #93, #114, #147, .T. ) ;
#90 = COORDINATED_UNIVERSAL_TIME_OFFSET ( 6, 0, .BEHIND. ) ;
#91 = ORIENTED_EDGE ( 'NONE', *, *, #27, .T. ) ;
#92 = DATE_AND_TIME ( #20, #65 ) ;
#93 = VERTEX_POINT ( 'NONE', #96 ) ;
#94 = EDGE_CURVE ( 'NONE', #114, #93, #186, .T. ) ;
#95 = PERSON_AND_ORGANIZATION ( #31, #58 ) ;
#96 = CARTESIAN_POINT ( 'NONE',  ( -12.50000000000000355, 0.000000000000000000, 4.520505709814118881E-15 ) ) ;
#97 = DIRECTION ( 'NONE',  ( 0.000000000000000000, 0.000000000000000000, -1.000000000000000000 ) ) ;
#98 = DIRECTION ( 'NONE',  ( 0.000000000000000000, 0.000000000000000000, 1.000000000000000000 ) ) ;
#99 = COORDINATED_UNIVERSAL_TIME_OFFSET ( 6, 0, .BEHIND. ) ;
#100 = AXIS2_PLACEMENT_3D ( 'NONE', #74, #64, #188 ) ;
#101 = CC_DESIGN_DATE_AND_TIME_ASSIGNMENT ( #124, #127, ( #68 ) ) ;
#102 = ORIENTED_EDGE ( 'NONE', *, *, #55, .F. ) ;
#103 = CC_DESIGN_APPROVAL ( #67, ( #68 ) ) ;
#104 = APPROVAL_ROLE ( '' ) ;
#105 = FACE_OUTER_BOUND ( 'NONE', #5, .T. ) ;
#106 = AXIS2_PLACEMENT_3D ( 'NONE', #80, #61, #62 ) ;
#107 = DIRECTION ( 'NONE',  ( -1.224646799147353207E-16, 1.000000000000000000, 3.749399456654643472E-32 ) ) ;
#108 = DIRECTION ( 'NONE',  ( -1.000000000000000000, 0.000000000000000000, 3.061616997868383141E-16 ) ) ;
#109 = APPLICATION_PROTOCOL_DEFINITION ( 'international standard', 'config_control_design', 1994, #38 ) ;
#110 = APPROVAL_STATUS ( 'not_yet_approved' ) ;
#111 = CIRCLE ( 'NONE', #14, 15.49999999999999645 ) ;
#112 = SECURITY_CLASSIFICATION_LEVEL ( 'unclassified' ) ;
#113 = ORIENTED_EDGE ( 'NONE', *, *, #77, .T. ) ;
#114 = VERTEX_POINT ( 'NONE', #47 ) ;
#115 = AXIS2_PLACEMENT_3D ( 'NONE', #133, #107, #158 ) ;
#116 = DIRECTION ( 'NONE',  ( -3.061616997868382648E-16, -0.000000000000000000, -1.000000000000000000 ) ) ;
#117 = CARTESIAN_POINT ( 'NONE',  ( 0.000000000000000000, 0.000000000000000000, 4.336808689942017736E-15 ) ) ;
#118 = CARTESIAN_POINT ( 'NONE',  ( 0.000000000000000000, 0.000000000000000000, 4.336808689942017736E-15 ) ) ;
#119 = DIRECTION ( 'NONE',  ( -3.061616997868382648E-16, -0.000000000000000000, -1.000000000000000000 ) ) ;
#120 = AXIS2_PLACEMENT_3D ( 'NONE', #29, #98, #165 ) ;
#121 = CIRCLE ( 'NONE', #1, 15.49999999999999645 ) ;
#122 = CC_DESIGN_APPROVAL ( #2, ( #15 ) ) ;
#123 = ORIENTED_EDGE ( 'NONE', *, *, #89, .F. ) ;
#124 = DATE_AND_TIME ( #3, #4 ) ;
#125 = APPROVAL_DATE_TIME ( #145, #2 ) ;
#126 = ORIENTED_EDGE ( 'NONE', *, *, #44, .F. ) ;
#127 = DATE_TIME_ROLE ( 'classification_date' ) ;
#128 = CC_DESIGN_PERSON_AND_ORGANIZATION_ASSIGNMENT ( #95, #140, ( #146 ) ) ;
#129 = CARTESIAN_POINT ( 'NONE',  ( 0.000000000000000000, 0.000000000000000000, 4.336808689942017736E-15 ) ) ;
#130 = CC_DESIGN_SECURITY_CLASSIFICATION ( #68, ( #146 ) ) ;
#131 = CARTESIAN_POINT ( 'NONE',  ( 0.000000000000000000, 0.000000000000000000, 4.336808689942017736E-15 ) ) ;
#132 = CIRCLE ( 'NONE', #41, 1.499999999999996669 ) ;
#133 = CARTESIAN_POINT ( 'NONE',  ( 14.00000000000000000, 1.714505518806294638E-15, 5.054489292628175744E-17 ) ) ;
#134 = CARTESIAN_POINT ( 'NONE',  ( 5.624099184981953440E-32, 0.000000000000000000, 4.520505709814120458E-15 ) ) ;
#135 = APPROVAL_PERSON_ORGANIZATION ( #73, #177, #71 ) ;
#136 = PERSON_AND_ORGANIZATION ( #31, #58 ) ;
#137 = CLOSED_SHELL ( 'NONE', ( #190, #81, #86, #18 ) ) ;
#138 = AXIS2_PLACEMENT_3D ( 'NONE', #79, #119, #181 ) ;
#139 = CC_DESIGN_PERSON_AND_ORGANIZATION_ASSIGNMENT ( #78, #168, ( #146 ) ) ;
#140 = PERSON_AND_ORGANIZATION_ROLE ( 'design_supplier' ) ;
#141 = EDGE_LOOP ( 'NONE', ( #9, #156, #21, #113 ) ) ;
#142 = DESIGN_CONTEXT ( 'detailed design', #159, 'design' ) ;
#143 = ORIENTED_EDGE ( 'NONE', *, *, #77, .F. ) ;
#144 = PERSON_AND_ORGANIZATION ( #31, #58 ) ;
#145 = DATE_AND_TIME ( #152, #33 ) ;
#146 = PRODUCT_DEFINITION_FORMATION_WITH_SPECIFIED_SOURCE ( 'ANY', '', #34, .NOT_KNOWN. ) ;
#147 = CIRCLE ( 'NONE', #164, 12.50000000000000355 ) ;
#148 = DIRECTION ( 'NONE',  ( -3.061616997868382648E-16, -0.000000000000000000, -1.000000000000000000 ) ) ;
#149 = FACE_OUTER_BOUND ( 'NONE', #141, .T. ) ;
#150 =( GEOMETRIC_REPRESENTATION_CONTEXT ( 3 ) GLOBAL_UNCERTAINTY_ASSIGNED_CONTEXT ( ( #49 ) ) GLOBAL_UNIT_ASSIGNED_CONTEXT ( ( #162, #50, #193 ) ) REPRESENTATION_CONTEXT ( 'NONE', 'WORKASPACE' ) );
#151 = DIRECTION ( 'NONE',  ( -1.000000000000000000, 0.000000000000000000, 3.061616997868382648E-16 ) ) ;
#152 = CALENDAR_DATE ( 2026, 18, 1 ) ;
#153 = AXIS2_PLACEMENT_3D ( 'NONE', #131, #189, #182 ) ;
#154 = APPROVAL_STATUS ( 'not_yet_approved' ) ;
#155 = EDGE_LOOP ( 'NONE', ( #102, #39, #91, #187 ) ) ;
#156 = ORIENTED_EDGE ( 'NONE', *, *, #53, .F. ) ;
#157 = PERSON_AND_ORGANIZATION ( #31, #58 ) ;
#158 = DIRECTION ( 'NONE',  ( -1.000000000000000000, -1.224646799147353700E-16, 0.000000000000000000 ) ) ;
#159 = APPLICATION_CONTEXT ( 'configuration controlled 3d designs of mechanical parts and assemblies' ) ;
#160 = CIRCLE ( 'NONE', #106, 1.499999999999996669 ) ;
#161 = DIRECTION ( 'NONE',  ( -3.061616997868382648E-16, -0.000000000000000000, -1.000000000000000000 ) ) ;
#162 =( LENGTH_UNIT ( ) NAMED_UNIT ( * ) SI_UNIT ( .MILLI., .METRE. ) );
#163 = LOCAL_TIME ( 9, 5, 44.00000000000000000, #57 ) ;
#164 = AXIS2_PLACEMENT_3D ( 'NONE', #134, #148, #11 ) ;
#165 = DIRECTION ( 'NONE',  ( 1.000000000000000000, 0.000000000000000000, 0.000000000000000000 ) ) ;
#166 = ADVANCED_BREP_SHAPE_REPRESENTATION ( '9262K275_Oil-Resistant Buna-N O-Ring', ( #63, #120 ), #150 ) ;
#167 = APPROVAL_PERSON_ORGANIZATION ( #52, #2, #17 ) ;
#168 = PERSON_AND_ORGANIZATION_ROLE ( 'creator' ) ;
#169 = CIRCLE ( 'NONE', #115, 1.499999999999996225 ) ;
#170 = PRODUCT_DEFINITION_SHAPE ( 'NONE', 'NONE',  #15 ) ;
#171 = PRODUCT_RELATED_PRODUCT_CATEGORY ( 'detail', '', ( #34 ) ) ;
#172 = ORIENTED_EDGE ( 'NONE', *, *, #55, .T. ) ;
#173 = ORIENTED_EDGE ( 'NONE', *, *, #27, .F. ) ;
#174 = DATE_AND_TIME ( #59, #84 ) ;
#175 = CIRCLE ( 'NONE', #69, 1.499999999999996225 ) ;
#176 = COORDINATED_UNIVERSAL_TIME_OFFSET ( 6, 0, .BEHIND. ) ;
#177 = APPROVAL ( #154, 'UNSPECIFIED' ) ;
#178 = DIRECTION ( 'NONE',  ( -1.224646799147353207E-16, 1.000000000000000000, 3.749399456654643472E-32 ) ) ;
#179 = CC_DESIGN_PERSON_AND_ORGANIZATION_ASSIGNMENT ( #144, #184, ( #68 ) ) ;
#180 = CARTESIAN_POINT ( 'NONE',  ( -14.00000000000000000, 0.000000000000000000, 8.623072486957754232E-15 ) ) ;
#181 = DIRECTION ( 'NONE',  ( -1.000000000000000000, 0.000000000000000000, 3.061616997868382648E-16 ) ) ;
#182 = DIRECTION ( 'NONE',  ( -1.000000000000000000, 0.000000000000000000, 3.061616997868382648E-16 ) ) ;
#183 = CC_DESIGN_APPROVAL ( #177, ( #146 ) ) ;
#184 = PERSON_AND_ORGANIZATION_ROLE ( 'classification_officer' ) ;
#185 = APPROVAL_DATE_TIME ( #92, #67 ) ;
#186 = CIRCLE ( 'NONE', #19, 12.50000000000000355 ) ;
#187 = ORIENTED_EDGE ( 'NONE', *, *, #94, .F. ) ;
#188 = DIRECTION ( 'NONE',  ( -1.000000000000000000, 0.000000000000000000, 3.061616997868382648E-16 ) ) ;
#189 = DIRECTION ( 'NONE',  ( -3.061616997868382648E-16, -0.000000000000000000, -1.000000000000000000 ) ) ;
#190 = ADVANCED_FACE ( 'NONE', ( #82 ), #51, .T. ) ;
#191 = DIRECTION ( 'NONE',  ( -1.000000000000000000, 0.000000000000000000, 3.061616997868383141E-16 ) ) ;
#192 = DIRECTION ( 'NONE',  ( -1.000000000000000000, 0.000000000000000000, 3.061616997868382648E-16 ) ) ;
#193 =( NAMED_UNIT ( * ) SI_UNIT ( $, .STERADIAN. ) SOLID_ANGLE_UNIT ( ) );
ENDSEC;
END-ISO-10303-21;
