%TF.GenerationSoftware,KiCad,Pcbnew,9.0.6*%
%TF.CreationDate,2026-04-29T22:33:49-04:00*%
%TF.ProjectId,Forker,466f726b-6572-42e6-9b69-6361645f7063,rev?*%
%TF.SameCoordinates,PX5f5e100PY54e0840*%
%TF.FileFunction,Legend,Top*%
%TF.FilePolarity,Positive*%
%FSLAX46Y46*%
G04 Gerber Fmt 4.6, Leading zero omitted, Abs format (unit mm)*
G04 Created by KiCad (PCBNEW 9.0.6) date 2026-04-29 22:33:49*
%MOMM*%
%LPD*%
G01*
G04 APERTURE LIST*
%ADD10C,0.150000*%
%ADD11C,0.100000*%
%ADD12C,0.120000*%
G04 APERTURE END LIST*
D10*
X53138095Y2445181D02*
X53138095Y3445181D01*
X53138095Y2968991D02*
X53709523Y2968991D01*
X53709523Y2445181D02*
X53709523Y3445181D01*
X54709523Y2445181D02*
X54138095Y2445181D01*
X54423809Y2445181D02*
X54423809Y3445181D01*
X54423809Y3445181D02*
X54328571Y3302324D01*
X54328571Y3302324D02*
X54233333Y3207086D01*
X54233333Y3207086D02*
X54138095Y3159467D01*
X10683333Y4545181D02*
X10350000Y5021372D01*
X10111905Y4545181D02*
X10111905Y5545181D01*
X10111905Y5545181D02*
X10492857Y5545181D01*
X10492857Y5545181D02*
X10588095Y5497562D01*
X10588095Y5497562D02*
X10635714Y5449943D01*
X10635714Y5449943D02*
X10683333Y5354705D01*
X10683333Y5354705D02*
X10683333Y5211848D01*
X10683333Y5211848D02*
X10635714Y5116610D01*
X10635714Y5116610D02*
X10588095Y5068991D01*
X10588095Y5068991D02*
X10492857Y5021372D01*
X10492857Y5021372D02*
X10111905Y5021372D01*
X11064286Y5449943D02*
X11111905Y5497562D01*
X11111905Y5497562D02*
X11207143Y5545181D01*
X11207143Y5545181D02*
X11445238Y5545181D01*
X11445238Y5545181D02*
X11540476Y5497562D01*
X11540476Y5497562D02*
X11588095Y5449943D01*
X11588095Y5449943D02*
X11635714Y5354705D01*
X11635714Y5354705D02*
X11635714Y5259467D01*
X11635714Y5259467D02*
X11588095Y5116610D01*
X11588095Y5116610D02*
X11016667Y4545181D01*
X11016667Y4545181D02*
X11635714Y4545181D01*
X5838095Y2045181D02*
X5838095Y3045181D01*
X5838095Y2568991D02*
X6409523Y2568991D01*
X6409523Y2045181D02*
X6409523Y3045181D01*
X6838095Y2949943D02*
X6885714Y2997562D01*
X6885714Y2997562D02*
X6980952Y3045181D01*
X6980952Y3045181D02*
X7219047Y3045181D01*
X7219047Y3045181D02*
X7314285Y2997562D01*
X7314285Y2997562D02*
X7361904Y2949943D01*
X7361904Y2949943D02*
X7409523Y2854705D01*
X7409523Y2854705D02*
X7409523Y2759467D01*
X7409523Y2759467D02*
X7361904Y2616610D01*
X7361904Y2616610D02*
X6790476Y2045181D01*
X6790476Y2045181D02*
X7409523Y2045181D01*
X10633333Y2995181D02*
X10300000Y3471372D01*
X10061905Y2995181D02*
X10061905Y3995181D01*
X10061905Y3995181D02*
X10442857Y3995181D01*
X10442857Y3995181D02*
X10538095Y3947562D01*
X10538095Y3947562D02*
X10585714Y3899943D01*
X10585714Y3899943D02*
X10633333Y3804705D01*
X10633333Y3804705D02*
X10633333Y3661848D01*
X10633333Y3661848D02*
X10585714Y3566610D01*
X10585714Y3566610D02*
X10538095Y3518991D01*
X10538095Y3518991D02*
X10442857Y3471372D01*
X10442857Y3471372D02*
X10061905Y3471372D01*
X11585714Y2995181D02*
X11014286Y2995181D01*
X11300000Y2995181D02*
X11300000Y3995181D01*
X11300000Y3995181D02*
X11204762Y3852324D01*
X11204762Y3852324D02*
X11109524Y3757086D01*
X11109524Y3757086D02*
X11014286Y3709467D01*
X22714819Y566667D02*
X23429104Y566667D01*
X23429104Y566667D02*
X23571961Y519048D01*
X23571961Y519048D02*
X23667200Y423810D01*
X23667200Y423810D02*
X23714819Y280953D01*
X23714819Y280953D02*
X23714819Y185715D01*
X22714819Y947620D02*
X22714819Y1614286D01*
X22714819Y1614286D02*
X23714819Y1185715D01*
X34954819Y31633334D02*
X34478628Y31300001D01*
X34954819Y31061906D02*
X33954819Y31061906D01*
X33954819Y31061906D02*
X33954819Y31442858D01*
X33954819Y31442858D02*
X34002438Y31538096D01*
X34002438Y31538096D02*
X34050057Y31585715D01*
X34050057Y31585715D02*
X34145295Y31633334D01*
X34145295Y31633334D02*
X34288152Y31633334D01*
X34288152Y31633334D02*
X34383390Y31585715D01*
X34383390Y31585715D02*
X34431009Y31538096D01*
X34431009Y31538096D02*
X34478628Y31442858D01*
X34478628Y31442858D02*
X34478628Y31061906D01*
X33954819Y31966668D02*
X33954819Y32633334D01*
X33954819Y32633334D02*
X34954819Y32204763D01*
X45838095Y25470181D02*
X45838095Y24660658D01*
X45838095Y24660658D02*
X45885714Y24565420D01*
X45885714Y24565420D02*
X45933333Y24517800D01*
X45933333Y24517800D02*
X46028571Y24470181D01*
X46028571Y24470181D02*
X46219047Y24470181D01*
X46219047Y24470181D02*
X46314285Y24517800D01*
X46314285Y24517800D02*
X46361904Y24565420D01*
X46361904Y24565420D02*
X46409523Y24660658D01*
X46409523Y24660658D02*
X46409523Y25470181D01*
X47028571Y25041610D02*
X46933333Y25089229D01*
X46933333Y25089229D02*
X46885714Y25136848D01*
X46885714Y25136848D02*
X46838095Y25232086D01*
X46838095Y25232086D02*
X46838095Y25279705D01*
X46838095Y25279705D02*
X46885714Y25374943D01*
X46885714Y25374943D02*
X46933333Y25422562D01*
X46933333Y25422562D02*
X47028571Y25470181D01*
X47028571Y25470181D02*
X47219047Y25470181D01*
X47219047Y25470181D02*
X47314285Y25422562D01*
X47314285Y25422562D02*
X47361904Y25374943D01*
X47361904Y25374943D02*
X47409523Y25279705D01*
X47409523Y25279705D02*
X47409523Y25232086D01*
X47409523Y25232086D02*
X47361904Y25136848D01*
X47361904Y25136848D02*
X47314285Y25089229D01*
X47314285Y25089229D02*
X47219047Y25041610D01*
X47219047Y25041610D02*
X47028571Y25041610D01*
X47028571Y25041610D02*
X46933333Y24993991D01*
X46933333Y24993991D02*
X46885714Y24946372D01*
X46885714Y24946372D02*
X46838095Y24851134D01*
X46838095Y24851134D02*
X46838095Y24660658D01*
X46838095Y24660658D02*
X46885714Y24565420D01*
X46885714Y24565420D02*
X46933333Y24517800D01*
X46933333Y24517800D02*
X47028571Y24470181D01*
X47028571Y24470181D02*
X47219047Y24470181D01*
X47219047Y24470181D02*
X47314285Y24517800D01*
X47314285Y24517800D02*
X47361904Y24565420D01*
X47361904Y24565420D02*
X47409523Y24660658D01*
X47409523Y24660658D02*
X47409523Y24851134D01*
X47409523Y24851134D02*
X47361904Y24946372D01*
X47361904Y24946372D02*
X47314285Y24993991D01*
X47314285Y24993991D02*
X47219047Y25041610D01*
X5283333Y32090420D02*
X5235714Y32042800D01*
X5235714Y32042800D02*
X5092857Y31995181D01*
X5092857Y31995181D02*
X4997619Y31995181D01*
X4997619Y31995181D02*
X4854762Y32042800D01*
X4854762Y32042800D02*
X4759524Y32138039D01*
X4759524Y32138039D02*
X4711905Y32233277D01*
X4711905Y32233277D02*
X4664286Y32423753D01*
X4664286Y32423753D02*
X4664286Y32566610D01*
X4664286Y32566610D02*
X4711905Y32757086D01*
X4711905Y32757086D02*
X4759524Y32852324D01*
X4759524Y32852324D02*
X4854762Y32947562D01*
X4854762Y32947562D02*
X4997619Y32995181D01*
X4997619Y32995181D02*
X5092857Y32995181D01*
X5092857Y32995181D02*
X5235714Y32947562D01*
X5235714Y32947562D02*
X5283333Y32899943D01*
X6235714Y31995181D02*
X5664286Y31995181D01*
X5950000Y31995181D02*
X5950000Y32995181D01*
X5950000Y32995181D02*
X5854762Y32852324D01*
X5854762Y32852324D02*
X5759524Y32757086D01*
X5759524Y32757086D02*
X5664286Y32709467D01*
X11054819Y26438096D02*
X11864342Y26438096D01*
X11864342Y26438096D02*
X11959580Y26485715D01*
X11959580Y26485715D02*
X12007200Y26533334D01*
X12007200Y26533334D02*
X12054819Y26628572D01*
X12054819Y26628572D02*
X12054819Y26819048D01*
X12054819Y26819048D02*
X12007200Y26914286D01*
X12007200Y26914286D02*
X11959580Y26961905D01*
X11959580Y26961905D02*
X11864342Y27009524D01*
X11864342Y27009524D02*
X11054819Y27009524D01*
X11150057Y27438096D02*
X11102438Y27485715D01*
X11102438Y27485715D02*
X11054819Y27580953D01*
X11054819Y27580953D02*
X11054819Y27819048D01*
X11054819Y27819048D02*
X11102438Y27914286D01*
X11102438Y27914286D02*
X11150057Y27961905D01*
X11150057Y27961905D02*
X11245295Y28009524D01*
X11245295Y28009524D02*
X11340533Y28009524D01*
X11340533Y28009524D02*
X11483390Y27961905D01*
X11483390Y27961905D02*
X12054819Y27390477D01*
X12054819Y27390477D02*
X12054819Y28009524D01*
X31954819Y34461906D02*
X30954819Y34461906D01*
X30954819Y34461906D02*
X30954819Y34700001D01*
X30954819Y34700001D02*
X31002438Y34842858D01*
X31002438Y34842858D02*
X31097676Y34938096D01*
X31097676Y34938096D02*
X31192914Y34985715D01*
X31192914Y34985715D02*
X31383390Y35033334D01*
X31383390Y35033334D02*
X31526247Y35033334D01*
X31526247Y35033334D02*
X31716723Y34985715D01*
X31716723Y34985715D02*
X31811961Y34938096D01*
X31811961Y34938096D02*
X31907200Y34842858D01*
X31907200Y34842858D02*
X31954819Y34700001D01*
X31954819Y34700001D02*
X31954819Y34461906D01*
X31050057Y35414287D02*
X31002438Y35461906D01*
X31002438Y35461906D02*
X30954819Y35557144D01*
X30954819Y35557144D02*
X30954819Y35795239D01*
X30954819Y35795239D02*
X31002438Y35890477D01*
X31002438Y35890477D02*
X31050057Y35938096D01*
X31050057Y35938096D02*
X31145295Y35985715D01*
X31145295Y35985715D02*
X31240533Y35985715D01*
X31240533Y35985715D02*
X31383390Y35938096D01*
X31383390Y35938096D02*
X31954819Y35366668D01*
X31954819Y35366668D02*
X31954819Y35985715D01*
X36164819Y516667D02*
X36879104Y516667D01*
X36879104Y516667D02*
X37021961Y469048D01*
X37021961Y469048D02*
X37117200Y373810D01*
X37117200Y373810D02*
X37164819Y230953D01*
X37164819Y230953D02*
X37164819Y135715D01*
X36593390Y1135715D02*
X36545771Y1040477D01*
X36545771Y1040477D02*
X36498152Y992858D01*
X36498152Y992858D02*
X36402914Y945239D01*
X36402914Y945239D02*
X36355295Y945239D01*
X36355295Y945239D02*
X36260057Y992858D01*
X36260057Y992858D02*
X36212438Y1040477D01*
X36212438Y1040477D02*
X36164819Y1135715D01*
X36164819Y1135715D02*
X36164819Y1326191D01*
X36164819Y1326191D02*
X36212438Y1421429D01*
X36212438Y1421429D02*
X36260057Y1469048D01*
X36260057Y1469048D02*
X36355295Y1516667D01*
X36355295Y1516667D02*
X36402914Y1516667D01*
X36402914Y1516667D02*
X36498152Y1469048D01*
X36498152Y1469048D02*
X36545771Y1421429D01*
X36545771Y1421429D02*
X36593390Y1326191D01*
X36593390Y1326191D02*
X36593390Y1135715D01*
X36593390Y1135715D02*
X36641009Y1040477D01*
X36641009Y1040477D02*
X36688628Y992858D01*
X36688628Y992858D02*
X36783866Y945239D01*
X36783866Y945239D02*
X36974342Y945239D01*
X36974342Y945239D02*
X37069580Y992858D01*
X37069580Y992858D02*
X37117200Y1040477D01*
X37117200Y1040477D02*
X37164819Y1135715D01*
X37164819Y1135715D02*
X37164819Y1326191D01*
X37164819Y1326191D02*
X37117200Y1421429D01*
X37117200Y1421429D02*
X37069580Y1469048D01*
X37069580Y1469048D02*
X36974342Y1516667D01*
X36974342Y1516667D02*
X36783866Y1516667D01*
X36783866Y1516667D02*
X36688628Y1469048D01*
X36688628Y1469048D02*
X36641009Y1421429D01*
X36641009Y1421429D02*
X36593390Y1326191D01*
X19909580Y32983334D02*
X19957200Y32935715D01*
X19957200Y32935715D02*
X20004819Y32792858D01*
X20004819Y32792858D02*
X20004819Y32697620D01*
X20004819Y32697620D02*
X19957200Y32554763D01*
X19957200Y32554763D02*
X19861961Y32459525D01*
X19861961Y32459525D02*
X19766723Y32411906D01*
X19766723Y32411906D02*
X19576247Y32364287D01*
X19576247Y32364287D02*
X19433390Y32364287D01*
X19433390Y32364287D02*
X19242914Y32411906D01*
X19242914Y32411906D02*
X19147676Y32459525D01*
X19147676Y32459525D02*
X19052438Y32554763D01*
X19052438Y32554763D02*
X19004819Y32697620D01*
X19004819Y32697620D02*
X19004819Y32792858D01*
X19004819Y32792858D02*
X19052438Y32935715D01*
X19052438Y32935715D02*
X19100057Y32983334D01*
X19004819Y33888096D02*
X19004819Y33411906D01*
X19004819Y33411906D02*
X19481009Y33364287D01*
X19481009Y33364287D02*
X19433390Y33411906D01*
X19433390Y33411906D02*
X19385771Y33507144D01*
X19385771Y33507144D02*
X19385771Y33745239D01*
X19385771Y33745239D02*
X19433390Y33840477D01*
X19433390Y33840477D02*
X19481009Y33888096D01*
X19481009Y33888096D02*
X19576247Y33935715D01*
X19576247Y33935715D02*
X19814342Y33935715D01*
X19814342Y33935715D02*
X19909580Y33888096D01*
X19909580Y33888096D02*
X19957200Y33840477D01*
X19957200Y33840477D02*
X20004819Y33745239D01*
X20004819Y33745239D02*
X20004819Y33507144D01*
X20004819Y33507144D02*
X19957200Y33411906D01*
X19957200Y33411906D02*
X19909580Y33364287D01*
X10609580Y29733334D02*
X10657200Y29685715D01*
X10657200Y29685715D02*
X10704819Y29542858D01*
X10704819Y29542858D02*
X10704819Y29447620D01*
X10704819Y29447620D02*
X10657200Y29304763D01*
X10657200Y29304763D02*
X10561961Y29209525D01*
X10561961Y29209525D02*
X10466723Y29161906D01*
X10466723Y29161906D02*
X10276247Y29114287D01*
X10276247Y29114287D02*
X10133390Y29114287D01*
X10133390Y29114287D02*
X9942914Y29161906D01*
X9942914Y29161906D02*
X9847676Y29209525D01*
X9847676Y29209525D02*
X9752438Y29304763D01*
X9752438Y29304763D02*
X9704819Y29447620D01*
X9704819Y29447620D02*
X9704819Y29542858D01*
X9704819Y29542858D02*
X9752438Y29685715D01*
X9752438Y29685715D02*
X9800057Y29733334D01*
X9800057Y30114287D02*
X9752438Y30161906D01*
X9752438Y30161906D02*
X9704819Y30257144D01*
X9704819Y30257144D02*
X9704819Y30495239D01*
X9704819Y30495239D02*
X9752438Y30590477D01*
X9752438Y30590477D02*
X9800057Y30638096D01*
X9800057Y30638096D02*
X9895295Y30685715D01*
X9895295Y30685715D02*
X9990533Y30685715D01*
X9990533Y30685715D02*
X10133390Y30638096D01*
X10133390Y30638096D02*
X10704819Y30066668D01*
X10704819Y30066668D02*
X10704819Y30685715D01*
X8404819Y38183334D02*
X7928628Y37850001D01*
X8404819Y37611906D02*
X7404819Y37611906D01*
X7404819Y37611906D02*
X7404819Y37992858D01*
X7404819Y37992858D02*
X7452438Y38088096D01*
X7452438Y38088096D02*
X7500057Y38135715D01*
X7500057Y38135715D02*
X7595295Y38183334D01*
X7595295Y38183334D02*
X7738152Y38183334D01*
X7738152Y38183334D02*
X7833390Y38135715D01*
X7833390Y38135715D02*
X7881009Y38088096D01*
X7881009Y38088096D02*
X7928628Y37992858D01*
X7928628Y37992858D02*
X7928628Y37611906D01*
X7738152Y39040477D02*
X8404819Y39040477D01*
X7357200Y38802382D02*
X8071485Y38564287D01*
X8071485Y38564287D02*
X8071485Y39183334D01*
X18409580Y32983334D02*
X18457200Y32935715D01*
X18457200Y32935715D02*
X18504819Y32792858D01*
X18504819Y32792858D02*
X18504819Y32697620D01*
X18504819Y32697620D02*
X18457200Y32554763D01*
X18457200Y32554763D02*
X18361961Y32459525D01*
X18361961Y32459525D02*
X18266723Y32411906D01*
X18266723Y32411906D02*
X18076247Y32364287D01*
X18076247Y32364287D02*
X17933390Y32364287D01*
X17933390Y32364287D02*
X17742914Y32411906D01*
X17742914Y32411906D02*
X17647676Y32459525D01*
X17647676Y32459525D02*
X17552438Y32554763D01*
X17552438Y32554763D02*
X17504819Y32697620D01*
X17504819Y32697620D02*
X17504819Y32792858D01*
X17504819Y32792858D02*
X17552438Y32935715D01*
X17552438Y32935715D02*
X17600057Y32983334D01*
X17504819Y33316668D02*
X17504819Y33935715D01*
X17504819Y33935715D02*
X17885771Y33602382D01*
X17885771Y33602382D02*
X17885771Y33745239D01*
X17885771Y33745239D02*
X17933390Y33840477D01*
X17933390Y33840477D02*
X17981009Y33888096D01*
X17981009Y33888096D02*
X18076247Y33935715D01*
X18076247Y33935715D02*
X18314342Y33935715D01*
X18314342Y33935715D02*
X18409580Y33888096D01*
X18409580Y33888096D02*
X18457200Y33840477D01*
X18457200Y33840477D02*
X18504819Y33745239D01*
X18504819Y33745239D02*
X18504819Y33459525D01*
X18504819Y33459525D02*
X18457200Y33364287D01*
X18457200Y33364287D02*
X18409580Y33316668D01*
X1754819Y37861906D02*
X754819Y37861906D01*
X754819Y37861906D02*
X754819Y38100001D01*
X754819Y38100001D02*
X802438Y38242858D01*
X802438Y38242858D02*
X897676Y38338096D01*
X897676Y38338096D02*
X992914Y38385715D01*
X992914Y38385715D02*
X1183390Y38433334D01*
X1183390Y38433334D02*
X1326247Y38433334D01*
X1326247Y38433334D02*
X1516723Y38385715D01*
X1516723Y38385715D02*
X1611961Y38338096D01*
X1611961Y38338096D02*
X1707200Y38242858D01*
X1707200Y38242858D02*
X1754819Y38100001D01*
X1754819Y38100001D02*
X1754819Y37861906D01*
X1754819Y39385715D02*
X1754819Y38814287D01*
X1754819Y39100001D02*
X754819Y39100001D01*
X754819Y39100001D02*
X897676Y39004763D01*
X897676Y39004763D02*
X992914Y38909525D01*
X992914Y38909525D02*
X1040533Y38814287D01*
X31048095Y13095181D02*
X31048095Y12285658D01*
X31048095Y12285658D02*
X31095714Y12190420D01*
X31095714Y12190420D02*
X31143333Y12142800D01*
X31143333Y12142800D02*
X31238571Y12095181D01*
X31238571Y12095181D02*
X31429047Y12095181D01*
X31429047Y12095181D02*
X31524285Y12142800D01*
X31524285Y12142800D02*
X31571904Y12190420D01*
X31571904Y12190420D02*
X31619523Y12285658D01*
X31619523Y12285658D02*
X31619523Y13095181D01*
X32000476Y13095181D02*
X32667142Y13095181D01*
X32667142Y13095181D02*
X32238571Y12095181D01*
X16733333Y12910420D02*
X16685714Y12862800D01*
X16685714Y12862800D02*
X16542857Y12815181D01*
X16542857Y12815181D02*
X16447619Y12815181D01*
X16447619Y12815181D02*
X16304762Y12862800D01*
X16304762Y12862800D02*
X16209524Y12958039D01*
X16209524Y12958039D02*
X16161905Y13053277D01*
X16161905Y13053277D02*
X16114286Y13243753D01*
X16114286Y13243753D02*
X16114286Y13386610D01*
X16114286Y13386610D02*
X16161905Y13577086D01*
X16161905Y13577086D02*
X16209524Y13672324D01*
X16209524Y13672324D02*
X16304762Y13767562D01*
X16304762Y13767562D02*
X16447619Y13815181D01*
X16447619Y13815181D02*
X16542857Y13815181D01*
X16542857Y13815181D02*
X16685714Y13767562D01*
X16685714Y13767562D02*
X16733333Y13719943D01*
X17066667Y13815181D02*
X17733333Y13815181D01*
X17733333Y13815181D02*
X17304762Y12815181D01*
X29364819Y516667D02*
X30079104Y516667D01*
X30079104Y516667D02*
X30221961Y469048D01*
X30221961Y469048D02*
X30317200Y373810D01*
X30317200Y373810D02*
X30364819Y230953D01*
X30364819Y230953D02*
X30364819Y135715D01*
X29364819Y1421429D02*
X29364819Y1230953D01*
X29364819Y1230953D02*
X29412438Y1135715D01*
X29412438Y1135715D02*
X29460057Y1088096D01*
X29460057Y1088096D02*
X29602914Y992858D01*
X29602914Y992858D02*
X29793390Y945239D01*
X29793390Y945239D02*
X30174342Y945239D01*
X30174342Y945239D02*
X30269580Y992858D01*
X30269580Y992858D02*
X30317200Y1040477D01*
X30317200Y1040477D02*
X30364819Y1135715D01*
X30364819Y1135715D02*
X30364819Y1326191D01*
X30364819Y1326191D02*
X30317200Y1421429D01*
X30317200Y1421429D02*
X30269580Y1469048D01*
X30269580Y1469048D02*
X30174342Y1516667D01*
X30174342Y1516667D02*
X29936247Y1516667D01*
X29936247Y1516667D02*
X29841009Y1469048D01*
X29841009Y1469048D02*
X29793390Y1421429D01*
X29793390Y1421429D02*
X29745771Y1326191D01*
X29745771Y1326191D02*
X29745771Y1135715D01*
X29745771Y1135715D02*
X29793390Y1040477D01*
X29793390Y1040477D02*
X29841009Y992858D01*
X29841009Y992858D02*
X29936247Y945239D01*
X14058333Y31270420D02*
X14010714Y31222800D01*
X14010714Y31222800D02*
X13867857Y31175181D01*
X13867857Y31175181D02*
X13772619Y31175181D01*
X13772619Y31175181D02*
X13629762Y31222800D01*
X13629762Y31222800D02*
X13534524Y31318039D01*
X13534524Y31318039D02*
X13486905Y31413277D01*
X13486905Y31413277D02*
X13439286Y31603753D01*
X13439286Y31603753D02*
X13439286Y31746610D01*
X13439286Y31746610D02*
X13486905Y31937086D01*
X13486905Y31937086D02*
X13534524Y32032324D01*
X13534524Y32032324D02*
X13629762Y32127562D01*
X13629762Y32127562D02*
X13772619Y32175181D01*
X13772619Y32175181D02*
X13867857Y32175181D01*
X13867857Y32175181D02*
X14010714Y32127562D01*
X14010714Y32127562D02*
X14058333Y32079943D01*
X14915476Y32175181D02*
X14725000Y32175181D01*
X14725000Y32175181D02*
X14629762Y32127562D01*
X14629762Y32127562D02*
X14582143Y32079943D01*
X14582143Y32079943D02*
X14486905Y31937086D01*
X14486905Y31937086D02*
X14439286Y31746610D01*
X14439286Y31746610D02*
X14439286Y31365658D01*
X14439286Y31365658D02*
X14486905Y31270420D01*
X14486905Y31270420D02*
X14534524Y31222800D01*
X14534524Y31222800D02*
X14629762Y31175181D01*
X14629762Y31175181D02*
X14820238Y31175181D01*
X14820238Y31175181D02*
X14915476Y31222800D01*
X14915476Y31222800D02*
X14963095Y31270420D01*
X14963095Y31270420D02*
X15010714Y31365658D01*
X15010714Y31365658D02*
X15010714Y31603753D01*
X15010714Y31603753D02*
X14963095Y31698991D01*
X14963095Y31698991D02*
X14915476Y31746610D01*
X14915476Y31746610D02*
X14820238Y31794229D01*
X14820238Y31794229D02*
X14629762Y31794229D01*
X14629762Y31794229D02*
X14534524Y31746610D01*
X14534524Y31746610D02*
X14486905Y31698991D01*
X14486905Y31698991D02*
X14439286Y31603753D01*
X30424819Y37357143D02*
X29948628Y37023810D01*
X30424819Y36785715D02*
X29424819Y36785715D01*
X29424819Y36785715D02*
X29424819Y37166667D01*
X29424819Y37166667D02*
X29472438Y37261905D01*
X29472438Y37261905D02*
X29520057Y37309524D01*
X29520057Y37309524D02*
X29615295Y37357143D01*
X29615295Y37357143D02*
X29758152Y37357143D01*
X29758152Y37357143D02*
X29853390Y37309524D01*
X29853390Y37309524D02*
X29901009Y37261905D01*
X29901009Y37261905D02*
X29948628Y37166667D01*
X29948628Y37166667D02*
X29948628Y36785715D01*
X30424819Y38309524D02*
X30424819Y37738096D01*
X30424819Y38023810D02*
X29424819Y38023810D01*
X29424819Y38023810D02*
X29567676Y37928572D01*
X29567676Y37928572D02*
X29662914Y37833334D01*
X29662914Y37833334D02*
X29710533Y37738096D01*
X30424819Y39261905D02*
X30424819Y38690477D01*
X30424819Y38976191D02*
X29424819Y38976191D01*
X29424819Y38976191D02*
X29567676Y38880953D01*
X29567676Y38880953D02*
X29662914Y38785715D01*
X29662914Y38785715D02*
X29710533Y38690477D01*
X2083333Y31895181D02*
X1750000Y32371372D01*
X1511905Y31895181D02*
X1511905Y32895181D01*
X1511905Y32895181D02*
X1892857Y32895181D01*
X1892857Y32895181D02*
X1988095Y32847562D01*
X1988095Y32847562D02*
X2035714Y32799943D01*
X2035714Y32799943D02*
X2083333Y32704705D01*
X2083333Y32704705D02*
X2083333Y32561848D01*
X2083333Y32561848D02*
X2035714Y32466610D01*
X2035714Y32466610D02*
X1988095Y32418991D01*
X1988095Y32418991D02*
X1892857Y32371372D01*
X1892857Y32371372D02*
X1511905Y32371372D01*
X2416667Y32895181D02*
X3035714Y32895181D01*
X3035714Y32895181D02*
X2702381Y32514229D01*
X2702381Y32514229D02*
X2845238Y32514229D01*
X2845238Y32514229D02*
X2940476Y32466610D01*
X2940476Y32466610D02*
X2988095Y32418991D01*
X2988095Y32418991D02*
X3035714Y32323753D01*
X3035714Y32323753D02*
X3035714Y32085658D01*
X3035714Y32085658D02*
X2988095Y31990420D01*
X2988095Y31990420D02*
X2940476Y31942800D01*
X2940476Y31942800D02*
X2845238Y31895181D01*
X2845238Y31895181D02*
X2559524Y31895181D01*
X2559524Y31895181D02*
X2464286Y31942800D01*
X2464286Y31942800D02*
X2416667Y31990420D01*
X33304819Y31683334D02*
X32828628Y31350001D01*
X33304819Y31111906D02*
X32304819Y31111906D01*
X32304819Y31111906D02*
X32304819Y31492858D01*
X32304819Y31492858D02*
X32352438Y31588096D01*
X32352438Y31588096D02*
X32400057Y31635715D01*
X32400057Y31635715D02*
X32495295Y31683334D01*
X32495295Y31683334D02*
X32638152Y31683334D01*
X32638152Y31683334D02*
X32733390Y31635715D01*
X32733390Y31635715D02*
X32781009Y31588096D01*
X32781009Y31588096D02*
X32828628Y31492858D01*
X32828628Y31492858D02*
X32828628Y31111906D01*
X32304819Y32540477D02*
X32304819Y32350001D01*
X32304819Y32350001D02*
X32352438Y32254763D01*
X32352438Y32254763D02*
X32400057Y32207144D01*
X32400057Y32207144D02*
X32542914Y32111906D01*
X32542914Y32111906D02*
X32733390Y32064287D01*
X32733390Y32064287D02*
X33114342Y32064287D01*
X33114342Y32064287D02*
X33209580Y32111906D01*
X33209580Y32111906D02*
X33257200Y32159525D01*
X33257200Y32159525D02*
X33304819Y32254763D01*
X33304819Y32254763D02*
X33304819Y32445239D01*
X33304819Y32445239D02*
X33257200Y32540477D01*
X33257200Y32540477D02*
X33209580Y32588096D01*
X33209580Y32588096D02*
X33114342Y32635715D01*
X33114342Y32635715D02*
X32876247Y32635715D01*
X32876247Y32635715D02*
X32781009Y32588096D01*
X32781009Y32588096D02*
X32733390Y32540477D01*
X32733390Y32540477D02*
X32685771Y32445239D01*
X32685771Y32445239D02*
X32685771Y32254763D01*
X32685771Y32254763D02*
X32733390Y32159525D01*
X32733390Y32159525D02*
X32781009Y32111906D01*
X32781009Y32111906D02*
X32876247Y32064287D01*
X6133333Y38045181D02*
X5800000Y38521372D01*
X5561905Y38045181D02*
X5561905Y39045181D01*
X5561905Y39045181D02*
X5942857Y39045181D01*
X5942857Y39045181D02*
X6038095Y38997562D01*
X6038095Y38997562D02*
X6085714Y38949943D01*
X6085714Y38949943D02*
X6133333Y38854705D01*
X6133333Y38854705D02*
X6133333Y38711848D01*
X6133333Y38711848D02*
X6085714Y38616610D01*
X6085714Y38616610D02*
X6038095Y38568991D01*
X6038095Y38568991D02*
X5942857Y38521372D01*
X5942857Y38521372D02*
X5561905Y38521372D01*
X6704762Y38616610D02*
X6609524Y38664229D01*
X6609524Y38664229D02*
X6561905Y38711848D01*
X6561905Y38711848D02*
X6514286Y38807086D01*
X6514286Y38807086D02*
X6514286Y38854705D01*
X6514286Y38854705D02*
X6561905Y38949943D01*
X6561905Y38949943D02*
X6609524Y38997562D01*
X6609524Y38997562D02*
X6704762Y39045181D01*
X6704762Y39045181D02*
X6895238Y39045181D01*
X6895238Y39045181D02*
X6990476Y38997562D01*
X6990476Y38997562D02*
X7038095Y38949943D01*
X7038095Y38949943D02*
X7085714Y38854705D01*
X7085714Y38854705D02*
X7085714Y38807086D01*
X7085714Y38807086D02*
X7038095Y38711848D01*
X7038095Y38711848D02*
X6990476Y38664229D01*
X6990476Y38664229D02*
X6895238Y38616610D01*
X6895238Y38616610D02*
X6704762Y38616610D01*
X6704762Y38616610D02*
X6609524Y38568991D01*
X6609524Y38568991D02*
X6561905Y38521372D01*
X6561905Y38521372D02*
X6514286Y38426134D01*
X6514286Y38426134D02*
X6514286Y38235658D01*
X6514286Y38235658D02*
X6561905Y38140420D01*
X6561905Y38140420D02*
X6609524Y38092800D01*
X6609524Y38092800D02*
X6704762Y38045181D01*
X6704762Y38045181D02*
X6895238Y38045181D01*
X6895238Y38045181D02*
X6990476Y38092800D01*
X6990476Y38092800D02*
X7038095Y38140420D01*
X7038095Y38140420D02*
X7085714Y38235658D01*
X7085714Y38235658D02*
X7085714Y38426134D01*
X7085714Y38426134D02*
X7038095Y38521372D01*
X7038095Y38521372D02*
X6990476Y38568991D01*
X6990476Y38568991D02*
X6895238Y38616610D01*
D11*
X28707419Y30938096D02*
X29516942Y30938096D01*
X29516942Y30938096D02*
X29612180Y30985715D01*
X29612180Y30985715D02*
X29659800Y31033334D01*
X29659800Y31033334D02*
X29707419Y31128572D01*
X29707419Y31128572D02*
X29707419Y31319048D01*
X29707419Y31319048D02*
X29659800Y31414286D01*
X29659800Y31414286D02*
X29612180Y31461905D01*
X29612180Y31461905D02*
X29516942Y31509524D01*
X29516942Y31509524D02*
X28707419Y31509524D01*
X28707419Y31890477D02*
X28707419Y32509524D01*
X28707419Y32509524D02*
X29088371Y32176191D01*
X29088371Y32176191D02*
X29088371Y32319048D01*
X29088371Y32319048D02*
X29135990Y32414286D01*
X29135990Y32414286D02*
X29183609Y32461905D01*
X29183609Y32461905D02*
X29278847Y32509524D01*
X29278847Y32509524D02*
X29516942Y32509524D01*
X29516942Y32509524D02*
X29612180Y32461905D01*
X29612180Y32461905D02*
X29659800Y32414286D01*
X29659800Y32414286D02*
X29707419Y32319048D01*
X29707419Y32319048D02*
X29707419Y32033334D01*
X29707419Y32033334D02*
X29659800Y31938096D01*
X29659800Y31938096D02*
X29612180Y31890477D01*
D10*
X14604819Y17175596D02*
X15414342Y17175596D01*
X15414342Y17175596D02*
X15509580Y17223215D01*
X15509580Y17223215D02*
X15557200Y17270834D01*
X15557200Y17270834D02*
X15604819Y17366072D01*
X15604819Y17366072D02*
X15604819Y17556548D01*
X15604819Y17556548D02*
X15557200Y17651786D01*
X15557200Y17651786D02*
X15509580Y17699405D01*
X15509580Y17699405D02*
X15414342Y17747024D01*
X15414342Y17747024D02*
X14604819Y17747024D01*
X14938152Y18651786D02*
X15604819Y18651786D01*
X14557200Y18413691D02*
X15271485Y18175596D01*
X15271485Y18175596D02*
X15271485Y18794643D01*
X11974819Y38166667D02*
X12689104Y38166667D01*
X12689104Y38166667D02*
X12831961Y38119048D01*
X12831961Y38119048D02*
X12927200Y38023810D01*
X12927200Y38023810D02*
X12974819Y37880953D01*
X12974819Y37880953D02*
X12974819Y37785715D01*
X11974819Y38547620D02*
X11974819Y39166667D01*
X11974819Y39166667D02*
X12355771Y38833334D01*
X12355771Y38833334D02*
X12355771Y38976191D01*
X12355771Y38976191D02*
X12403390Y39071429D01*
X12403390Y39071429D02*
X12451009Y39119048D01*
X12451009Y39119048D02*
X12546247Y39166667D01*
X12546247Y39166667D02*
X12784342Y39166667D01*
X12784342Y39166667D02*
X12879580Y39119048D01*
X12879580Y39119048D02*
X12927200Y39071429D01*
X12927200Y39071429D02*
X12974819Y38976191D01*
X12974819Y38976191D02*
X12974819Y38690477D01*
X12974819Y38690477D02*
X12927200Y38595239D01*
X12927200Y38595239D02*
X12879580Y38547620D01*
X10954819Y23766667D02*
X11669104Y23766667D01*
X11669104Y23766667D02*
X11811961Y23719048D01*
X11811961Y23719048D02*
X11907200Y23623810D01*
X11907200Y23623810D02*
X11954819Y23480953D01*
X11954819Y23480953D02*
X11954819Y23385715D01*
X11954819Y24242858D02*
X10954819Y24242858D01*
X10954819Y24242858D02*
X10954819Y24623810D01*
X10954819Y24623810D02*
X11002438Y24719048D01*
X11002438Y24719048D02*
X11050057Y24766667D01*
X11050057Y24766667D02*
X11145295Y24814286D01*
X11145295Y24814286D02*
X11288152Y24814286D01*
X11288152Y24814286D02*
X11383390Y24766667D01*
X11383390Y24766667D02*
X11431009Y24719048D01*
X11431009Y24719048D02*
X11478628Y24623810D01*
X11478628Y24623810D02*
X11478628Y24242858D01*
X11954819Y25766667D02*
X11954819Y25195239D01*
X11954819Y25480953D02*
X10954819Y25480953D01*
X10954819Y25480953D02*
X11097676Y25385715D01*
X11097676Y25385715D02*
X11192914Y25290477D01*
X11192914Y25290477D02*
X11240533Y25195239D01*
X12057142Y34995181D02*
X11723809Y35471372D01*
X11485714Y34995181D02*
X11485714Y35995181D01*
X11485714Y35995181D02*
X11866666Y35995181D01*
X11866666Y35995181D02*
X11961904Y35947562D01*
X11961904Y35947562D02*
X12009523Y35899943D01*
X12009523Y35899943D02*
X12057142Y35804705D01*
X12057142Y35804705D02*
X12057142Y35661848D01*
X12057142Y35661848D02*
X12009523Y35566610D01*
X12009523Y35566610D02*
X11961904Y35518991D01*
X11961904Y35518991D02*
X11866666Y35471372D01*
X11866666Y35471372D02*
X11485714Y35471372D01*
X13009523Y34995181D02*
X12438095Y34995181D01*
X12723809Y34995181D02*
X12723809Y35995181D01*
X12723809Y35995181D02*
X12628571Y35852324D01*
X12628571Y35852324D02*
X12533333Y35757086D01*
X12533333Y35757086D02*
X12438095Y35709467D01*
X13628571Y35995181D02*
X13723809Y35995181D01*
X13723809Y35995181D02*
X13819047Y35947562D01*
X13819047Y35947562D02*
X13866666Y35899943D01*
X13866666Y35899943D02*
X13914285Y35804705D01*
X13914285Y35804705D02*
X13961904Y35614229D01*
X13961904Y35614229D02*
X13961904Y35376134D01*
X13961904Y35376134D02*
X13914285Y35185658D01*
X13914285Y35185658D02*
X13866666Y35090420D01*
X13866666Y35090420D02*
X13819047Y35042800D01*
X13819047Y35042800D02*
X13723809Y34995181D01*
X13723809Y34995181D02*
X13628571Y34995181D01*
X13628571Y34995181D02*
X13533333Y35042800D01*
X13533333Y35042800D02*
X13485714Y35090420D01*
X13485714Y35090420D02*
X13438095Y35185658D01*
X13438095Y35185658D02*
X13390476Y35376134D01*
X13390476Y35376134D02*
X13390476Y35614229D01*
X13390476Y35614229D02*
X13438095Y35804705D01*
X13438095Y35804705D02*
X13485714Y35899943D01*
X13485714Y35899943D02*
X13533333Y35947562D01*
X13533333Y35947562D02*
X13628571Y35995181D01*
X25989580Y26233334D02*
X26037200Y26185715D01*
X26037200Y26185715D02*
X26084819Y26042858D01*
X26084819Y26042858D02*
X26084819Y25947620D01*
X26084819Y25947620D02*
X26037200Y25804763D01*
X26037200Y25804763D02*
X25941961Y25709525D01*
X25941961Y25709525D02*
X25846723Y25661906D01*
X25846723Y25661906D02*
X25656247Y25614287D01*
X25656247Y25614287D02*
X25513390Y25614287D01*
X25513390Y25614287D02*
X25322914Y25661906D01*
X25322914Y25661906D02*
X25227676Y25709525D01*
X25227676Y25709525D02*
X25132438Y25804763D01*
X25132438Y25804763D02*
X25084819Y25947620D01*
X25084819Y25947620D02*
X25084819Y26042858D01*
X25084819Y26042858D02*
X25132438Y26185715D01*
X25132438Y26185715D02*
X25180057Y26233334D01*
X25418152Y27090477D02*
X26084819Y27090477D01*
X25037200Y26852382D02*
X25751485Y26614287D01*
X25751485Y26614287D02*
X25751485Y27233334D01*
X25248095Y13095181D02*
X25248095Y12285658D01*
X25248095Y12285658D02*
X25295714Y12190420D01*
X25295714Y12190420D02*
X25343333Y12142800D01*
X25343333Y12142800D02*
X25438571Y12095181D01*
X25438571Y12095181D02*
X25629047Y12095181D01*
X25629047Y12095181D02*
X25724285Y12142800D01*
X25724285Y12142800D02*
X25771904Y12190420D01*
X25771904Y12190420D02*
X25819523Y12285658D01*
X25819523Y12285658D02*
X25819523Y13095181D01*
X26771904Y13095181D02*
X26295714Y13095181D01*
X26295714Y13095181D02*
X26248095Y12618991D01*
X26248095Y12618991D02*
X26295714Y12666610D01*
X26295714Y12666610D02*
X26390952Y12714229D01*
X26390952Y12714229D02*
X26629047Y12714229D01*
X26629047Y12714229D02*
X26724285Y12666610D01*
X26724285Y12666610D02*
X26771904Y12618991D01*
X26771904Y12618991D02*
X26819523Y12523753D01*
X26819523Y12523753D02*
X26819523Y12285658D01*
X26819523Y12285658D02*
X26771904Y12190420D01*
X26771904Y12190420D02*
X26724285Y12142800D01*
X26724285Y12142800D02*
X26629047Y12095181D01*
X26629047Y12095181D02*
X26390952Y12095181D01*
X26390952Y12095181D02*
X26295714Y12142800D01*
X26295714Y12142800D02*
X26248095Y12190420D01*
X9761905Y19395181D02*
X9761905Y20395181D01*
X9761905Y20395181D02*
X10000000Y20395181D01*
X10000000Y20395181D02*
X10142857Y20347562D01*
X10142857Y20347562D02*
X10238095Y20252324D01*
X10238095Y20252324D02*
X10285714Y20157086D01*
X10285714Y20157086D02*
X10333333Y19966610D01*
X10333333Y19966610D02*
X10333333Y19823753D01*
X10333333Y19823753D02*
X10285714Y19633277D01*
X10285714Y19633277D02*
X10238095Y19538039D01*
X10238095Y19538039D02*
X10142857Y19442800D01*
X10142857Y19442800D02*
X10000000Y19395181D01*
X10000000Y19395181D02*
X9761905Y19395181D01*
X11238095Y20395181D02*
X10761905Y20395181D01*
X10761905Y20395181D02*
X10714286Y19918991D01*
X10714286Y19918991D02*
X10761905Y19966610D01*
X10761905Y19966610D02*
X10857143Y20014229D01*
X10857143Y20014229D02*
X11095238Y20014229D01*
X11095238Y20014229D02*
X11190476Y19966610D01*
X11190476Y19966610D02*
X11238095Y19918991D01*
X11238095Y19918991D02*
X11285714Y19823753D01*
X11285714Y19823753D02*
X11285714Y19585658D01*
X11285714Y19585658D02*
X11238095Y19490420D01*
X11238095Y19490420D02*
X11190476Y19442800D01*
X11190476Y19442800D02*
X11095238Y19395181D01*
X11095238Y19395181D02*
X10857143Y19395181D01*
X10857143Y19395181D02*
X10761905Y19442800D01*
X10761905Y19442800D02*
X10714286Y19490420D01*
X6854819Y32088096D02*
X7664342Y32088096D01*
X7664342Y32088096D02*
X7759580Y32135715D01*
X7759580Y32135715D02*
X7807200Y32183334D01*
X7807200Y32183334D02*
X7854819Y32278572D01*
X7854819Y32278572D02*
X7854819Y32469048D01*
X7854819Y32469048D02*
X7807200Y32564286D01*
X7807200Y32564286D02*
X7759580Y32611905D01*
X7759580Y32611905D02*
X7664342Y32659524D01*
X7664342Y32659524D02*
X6854819Y32659524D01*
X7854819Y33659524D02*
X7854819Y33088096D01*
X7854819Y33373810D02*
X6854819Y33373810D01*
X6854819Y33373810D02*
X6997676Y33278572D01*
X6997676Y33278572D02*
X7092914Y33183334D01*
X7092914Y33183334D02*
X7140533Y33088096D01*
X17848095Y12945181D02*
X17848095Y12135658D01*
X17848095Y12135658D02*
X17895714Y12040420D01*
X17895714Y12040420D02*
X17943333Y11992800D01*
X17943333Y11992800D02*
X18038571Y11945181D01*
X18038571Y11945181D02*
X18229047Y11945181D01*
X18229047Y11945181D02*
X18324285Y11992800D01*
X18324285Y11992800D02*
X18371904Y12040420D01*
X18371904Y12040420D02*
X18419523Y12135658D01*
X18419523Y12135658D02*
X18419523Y12945181D01*
X19324285Y12945181D02*
X19133809Y12945181D01*
X19133809Y12945181D02*
X19038571Y12897562D01*
X19038571Y12897562D02*
X18990952Y12849943D01*
X18990952Y12849943D02*
X18895714Y12707086D01*
X18895714Y12707086D02*
X18848095Y12516610D01*
X18848095Y12516610D02*
X18848095Y12135658D01*
X18848095Y12135658D02*
X18895714Y12040420D01*
X18895714Y12040420D02*
X18943333Y11992800D01*
X18943333Y11992800D02*
X19038571Y11945181D01*
X19038571Y11945181D02*
X19229047Y11945181D01*
X19229047Y11945181D02*
X19324285Y11992800D01*
X19324285Y11992800D02*
X19371904Y12040420D01*
X19371904Y12040420D02*
X19419523Y12135658D01*
X19419523Y12135658D02*
X19419523Y12373753D01*
X19419523Y12373753D02*
X19371904Y12468991D01*
X19371904Y12468991D02*
X19324285Y12516610D01*
X19324285Y12516610D02*
X19229047Y12564229D01*
X19229047Y12564229D02*
X19038571Y12564229D01*
X19038571Y12564229D02*
X18943333Y12516610D01*
X18943333Y12516610D02*
X18895714Y12468991D01*
X18895714Y12468991D02*
X18848095Y12373753D01*
X36804819Y37311906D02*
X35804819Y37311906D01*
X35804819Y37311906D02*
X35804819Y37550001D01*
X35804819Y37550001D02*
X35852438Y37692858D01*
X35852438Y37692858D02*
X35947676Y37788096D01*
X35947676Y37788096D02*
X36042914Y37835715D01*
X36042914Y37835715D02*
X36233390Y37883334D01*
X36233390Y37883334D02*
X36376247Y37883334D01*
X36376247Y37883334D02*
X36566723Y37835715D01*
X36566723Y37835715D02*
X36661961Y37788096D01*
X36661961Y37788096D02*
X36757200Y37692858D01*
X36757200Y37692858D02*
X36804819Y37550001D01*
X36804819Y37550001D02*
X36804819Y37311906D01*
X35804819Y38216668D02*
X35804819Y38835715D01*
X35804819Y38835715D02*
X36185771Y38502382D01*
X36185771Y38502382D02*
X36185771Y38645239D01*
X36185771Y38645239D02*
X36233390Y38740477D01*
X36233390Y38740477D02*
X36281009Y38788096D01*
X36281009Y38788096D02*
X36376247Y38835715D01*
X36376247Y38835715D02*
X36614342Y38835715D01*
X36614342Y38835715D02*
X36709580Y38788096D01*
X36709580Y38788096D02*
X36757200Y38740477D01*
X36757200Y38740477D02*
X36804819Y38645239D01*
X36804819Y38645239D02*
X36804819Y38359525D01*
X36804819Y38359525D02*
X36757200Y38264287D01*
X36757200Y38264287D02*
X36709580Y38216668D01*
D12*
%TO.C,R2*%
X8154724Y5522500D02*
X7645276Y5522500D01*
X8154724Y4477500D02*
X7645276Y4477500D01*
%TO.C,R1*%
X8154724Y4022500D02*
X7645276Y4022500D01*
X8154724Y2977500D02*
X7645276Y2977500D01*
%TO.C,J7*%
X17540000Y3380000D02*
X17540000Y620000D01*
X20190000Y3380000D02*
X17540000Y3380000D01*
X20190000Y3380000D02*
X20190000Y620000D01*
X20190000Y620000D02*
X17540000Y620000D01*
X21460000Y3380000D02*
X22840000Y3380000D01*
X22840000Y3380000D02*
X22840000Y2000000D01*
%TO.C,R7*%
X33977500Y34445276D02*
X33977500Y34954724D01*
X35022500Y34445276D02*
X35022500Y34954724D01*
%TO.C,U8*%
X44650000Y30665000D02*
X48550000Y30665000D01*
X48550000Y25665000D02*
X44650000Y25665000D01*
X50800000Y26052386D02*
X50470000Y26292386D01*
X50800000Y26532386D01*
X50800000Y26052386D01*
G36*
X50800000Y26052386D02*
G01*
X50470000Y26292386D01*
X50800000Y26532386D01*
X50800000Y26052386D01*
G37*
%TO.C,C1*%
X5740580Y31410000D02*
X5459420Y31410000D01*
X5740580Y30390000D02*
X5459420Y30390000D01*
%TO.C,U2*%
X12665000Y27610000D02*
X12715000Y27610000D01*
X12665000Y25790000D02*
X12665000Y27610000D01*
X12715000Y25790000D02*
X12665000Y25790000D01*
X13835000Y27610000D02*
X14615000Y27610000D01*
X15735000Y27610000D02*
X15785000Y27610000D01*
X15785000Y27610000D02*
X15785000Y25790000D01*
X15785000Y25790000D02*
X15735000Y25790000D01*
X12715000Y25250000D02*
X12385000Y25010000D01*
X12385000Y25490000D01*
X12715000Y25250000D01*
G36*
X12715000Y25250000D02*
G01*
X12385000Y25010000D01*
X12385000Y25490000D01*
X12715000Y25250000D01*
G37*
%TO.C,D2*%
X32165000Y39660000D02*
X32165000Y37200000D01*
X33635000Y39660000D02*
X32165000Y39660000D01*
X33635000Y37200000D02*
X33635000Y39660000D01*
%TO.C,J8*%
X31115000Y3280000D02*
X31115000Y520000D01*
X33765000Y3280000D02*
X31115000Y3280000D01*
X33765000Y3280000D02*
X33765000Y520000D01*
X33765000Y520000D02*
X31115000Y520000D01*
X35035000Y3280000D02*
X36415000Y3280000D01*
X36415000Y3280000D02*
X36415000Y1900000D01*
%TO.C,C5*%
X18890000Y30640580D02*
X18890000Y30359420D01*
X19910000Y30640580D02*
X19910000Y30359420D01*
%TO.C,C2*%
X8090000Y29459420D02*
X8090000Y29740580D01*
X9110000Y29459420D02*
X9110000Y29740580D01*
%TO.C,R4*%
X6877500Y35245276D02*
X6877500Y35754724D01*
X7922500Y35245276D02*
X7922500Y35754724D01*
%TO.C,C3*%
X17390000Y30640580D02*
X17390000Y30359420D01*
X18410000Y30640580D02*
X18410000Y30359420D01*
%TO.C,D1*%
X1165000Y36800000D02*
X1165000Y34340000D01*
X1165000Y34340000D02*
X2635000Y34340000D01*
X2635000Y34340000D02*
X2635000Y36800000D01*
%TO.C,U7*%
X29265000Y5950000D02*
X29265000Y9850000D01*
X34265000Y9850000D02*
X34265000Y5950000D01*
X33637614Y11770000D02*
X33397614Y12100000D01*
X33877614Y12100000D01*
X33637614Y11770000D01*
G36*
X33637614Y11770000D02*
G01*
X33397614Y12100000D01*
X33877614Y12100000D01*
X33637614Y11770000D01*
G37*
%TO.C,C7*%
X17040580Y15210000D02*
X16759420Y15210000D01*
X17040580Y14190000D02*
X16759420Y14190000D01*
%TO.C,J6*%
X24040000Y3380000D02*
X24040000Y620000D01*
X26690000Y3380000D02*
X24040000Y3380000D01*
X26690000Y3380000D02*
X26690000Y620000D01*
X26690000Y620000D02*
X24040000Y620000D01*
X27960000Y3380000D02*
X29340000Y3380000D01*
X29340000Y3380000D02*
X29340000Y2000000D01*
%TO.C,C6*%
X14084420Y30710000D02*
X14365580Y30710000D01*
X14084420Y29690000D02*
X14365580Y29690000D01*
%TO.C,R11*%
X30877500Y37745276D02*
X30877500Y38254724D01*
X31922500Y37745276D02*
X31922500Y38254724D01*
%TO.C,R3*%
X2145276Y31422500D02*
X2654724Y31422500D01*
X2145276Y30377500D02*
X2654724Y30377500D01*
%TO.C,R6*%
X32377500Y34445276D02*
X32377500Y34954724D01*
X33422500Y34445276D02*
X33422500Y34954724D01*
%TO.C,R8*%
X3145276Y39022500D02*
X3654724Y39022500D01*
X3145276Y37977500D02*
X3654724Y37977500D01*
%TO.C,U3*%
X22740000Y30390000D02*
X22740000Y33610000D01*
X28060000Y33610000D02*
X28060000Y30390000D01*
X23390000Y28480000D02*
X22910000Y28480000D01*
X23150000Y28810000D01*
X23390000Y28480000D01*
G36*
X23390000Y28480000D02*
G01*
X22910000Y28480000D01*
X23150000Y28810000D01*
X23390000Y28480000D01*
G37*
%TO.C,U4*%
X15990000Y18847500D02*
X16040000Y18847500D01*
X15990000Y17027500D02*
X15990000Y18847500D01*
X16040000Y17027500D02*
X15990000Y17027500D01*
X17160000Y18847500D02*
X17940000Y18847500D01*
X19060000Y18847500D02*
X19110000Y18847500D01*
X19110000Y18847500D02*
X19110000Y17027500D01*
X19110000Y17027500D02*
X19060000Y17027500D01*
X16040000Y16487500D02*
X15710000Y16247500D01*
X15710000Y16727500D01*
X16040000Y16487500D01*
G36*
X16040000Y16487500D02*
G01*
X15710000Y16247500D01*
X15710000Y16727500D01*
X16040000Y16487500D01*
G37*
%TO.C,J3*%
X13520000Y37120000D02*
X13520000Y38500000D01*
X14900000Y37120000D02*
X13520000Y37120000D01*
X16170000Y39880000D02*
X28980000Y39880000D01*
X16170000Y37120000D02*
X16170000Y39880000D01*
X16170000Y37120000D02*
X28980000Y37120000D01*
X28980000Y37120000D02*
X28980000Y39880000D01*
%TO.C,JP1*%
X8500000Y27125000D02*
X10500000Y27125000D01*
X8500000Y24325000D02*
X8500000Y27125000D01*
X10500000Y27125000D02*
X10500000Y24325000D01*
X10500000Y24325000D02*
X8500000Y24325000D01*
%TO.C,R10*%
X16154724Y36022500D02*
X15645276Y36022500D01*
X16154724Y34977500D02*
X15645276Y34977500D01*
%TO.C,C4*%
X23690000Y26540580D02*
X23690000Y26259420D01*
X24710000Y26540580D02*
X24710000Y26259420D01*
%TO.C,U5*%
X23695000Y5950000D02*
X23695000Y9850000D01*
X28695000Y9850000D02*
X28695000Y5950000D01*
X28067614Y11770000D02*
X27827614Y12100000D01*
X28307614Y12100000D01*
X28067614Y11770000D01*
G36*
X28067614Y11770000D02*
G01*
X27827614Y12100000D01*
X28307614Y12100000D01*
X28067614Y11770000D01*
G37*
%TO.C,D5*%
X12860000Y23000000D02*
X8850000Y23000000D01*
X12860000Y21000000D02*
X8850000Y21000000D01*
X12860000Y21000000D02*
X12860000Y23000000D01*
%TO.C,U1*%
X3340000Y36410000D02*
X3390000Y36410000D01*
X3340000Y34590000D02*
X3340000Y36410000D01*
X3390000Y34590000D02*
X3340000Y34590000D01*
X6410000Y36410000D02*
X6460000Y36410000D01*
X6460000Y36410000D02*
X6460000Y34590000D01*
X6460000Y34590000D02*
X6410000Y34590000D01*
X6740000Y36710000D02*
X6410000Y36950000D01*
X6740000Y37190000D01*
X6740000Y36710000D01*
G36*
X6740000Y36710000D02*
G01*
X6410000Y36950000D01*
X6740000Y37190000D01*
X6740000Y36710000D01*
G37*
%TO.C,U6*%
X17660000Y5882500D02*
X17660000Y9782500D01*
X22660000Y9782500D02*
X22660000Y5882500D01*
X22032614Y11702500D02*
X21792614Y12032500D01*
X22272614Y12032500D01*
X22032614Y11702500D01*
G36*
X22032614Y11702500D02*
G01*
X21792614Y12032500D01*
X22272614Y12032500D01*
X22032614Y11702500D01*
G37*
%TO.C,D3*%
X33765000Y39660000D02*
X33765000Y37200000D01*
X35235000Y39660000D02*
X33765000Y39660000D01*
X35235000Y37200000D02*
X35235000Y39660000D01*
%TD*%
M02*
