%TF.GenerationSoftware,KiCad,Pcbnew,9.0.6*%
%TF.CreationDate,2026-04-29T22:33:49-04:00*%
%TF.ProjectId,Forker,466f726b-6572-42e6-9b69-6361645f7063,rev?*%
%TF.SameCoordinates,PX5f5e100PY54e0840*%
%TF.FileFunction,Paste,Top*%
%TF.FilePolarity,Positive*%
%FSLAX46Y46*%
G04 Gerber Fmt 4.6, Leading zero omitted, Abs format (unit mm)*
G04 Created by KiCad (PCBNEW 9.0.6) date 2026-04-29 22:33:49*
%MOMM*%
%LPD*%
G01*
G04 APERTURE LIST*
G04 Aperture macros list*
%AMRoundRect*
0 Rectangle with rounded corners*
0 $1 Rounding radius*
0 $2 $3 $4 $5 $6 $7 $8 $9 X,Y pos of 4 corners*
0 Add a 4 corners polygon primitive as box body*
4,1,4,$2,$3,$4,$5,$6,$7,$8,$9,$2,$3,0*
0 Add four circle primitives for the rounded corners*
1,1,$1+$1,$2,$3*
1,1,$1+$1,$4,$5*
1,1,$1+$1,$6,$7*
1,1,$1+$1,$8,$9*
0 Add four rect primitives between the rounded corners*
20,1,$1+$1,$2,$3,$4,$5,0*
20,1,$1+$1,$4,$5,$6,$7,0*
20,1,$1+$1,$6,$7,$8,$9,0*
20,1,$1+$1,$8,$9,$2,$3,0*%
G04 Aperture macros list end*
%ADD10RoundRect,0.237500X0.250000X0.237500X-0.250000X0.237500X-0.250000X-0.237500X0.250000X-0.237500X0*%
%ADD11RoundRect,0.237500X0.237500X-0.250000X0.237500X0.250000X-0.237500X0.250000X-0.237500X-0.250000X0*%
%ADD12RoundRect,0.152500X0.647500X0.152500X-0.647500X0.152500X-0.647500X-0.152500X0.647500X-0.152500X0*%
%ADD13R,2.620000X3.510000*%
%ADD14RoundRect,0.225000X0.225000X0.250000X-0.225000X0.250000X-0.225000X-0.250000X0.225000X-0.250000X0*%
%ADD15RoundRect,0.150000X0.150000X-0.512500X0.150000X0.512500X-0.150000X0.512500X-0.150000X-0.512500X0*%
%ADD16RoundRect,0.237500X-0.237500X0.287500X-0.237500X-0.287500X0.237500X-0.287500X0.237500X0.287500X0*%
%ADD17RoundRect,0.225000X-0.250000X0.225000X-0.250000X-0.225000X0.250000X-0.225000X0.250000X0.225000X0*%
%ADD18RoundRect,0.225000X0.250000X-0.225000X0.250000X0.225000X-0.250000X0.225000X-0.250000X-0.225000X0*%
%ADD19RoundRect,0.237500X0.237500X-0.287500X0.237500X0.287500X-0.237500X0.287500X-0.237500X-0.287500X0*%
%ADD20RoundRect,0.152500X-0.152500X0.647500X-0.152500X-0.647500X0.152500X-0.647500X0.152500X0.647500X0*%
%ADD21R,3.510000X2.620000*%
%ADD22RoundRect,0.225000X-0.225000X-0.250000X0.225000X-0.250000X0.225000X0.250000X-0.225000X0.250000X0*%
%ADD23RoundRect,0.237500X-0.250000X-0.237500X0.250000X-0.237500X0.250000X0.237500X-0.250000X0.237500X0*%
%ADD24RoundRect,0.075000X0.075000X-0.650000X0.075000X0.650000X-0.075000X0.650000X-0.075000X-0.650000X0*%
%ADD25RoundRect,0.225000X0.225000X0.375000X-0.225000X0.375000X-0.225000X-0.375000X0.225000X-0.375000X0*%
%ADD26RoundRect,0.150000X-0.150000X0.512500X-0.150000X-0.512500X0.150000X-0.512500X0.150000X0.512500X0*%
G04 APERTURE END LIST*
D10*
%TO.C,R2*%
X8812500Y5000000D03*
X6987500Y5000000D03*
%TD*%
%TO.C,R1*%
X8812500Y3500000D03*
X6987500Y3500000D03*
%TD*%
D11*
%TO.C,R7*%
X34500000Y33787500D03*
X34500000Y35612500D03*
%TD*%
D12*
%TO.C,U8*%
X49300000Y26260000D03*
X49300000Y27530000D03*
X49300000Y28800000D03*
X49300000Y30070000D03*
X43900000Y30070000D03*
X43900000Y28800000D03*
X43900000Y27530000D03*
X43900000Y26260000D03*
D13*
X46600000Y28165000D03*
%TD*%
D14*
%TO.C,C1*%
X6375000Y30900000D03*
X4825000Y30900000D03*
%TD*%
D15*
%TO.C,U2*%
X13275000Y25562500D03*
X14225000Y25562500D03*
X15175000Y25562500D03*
X15175000Y27837500D03*
X13275000Y27837500D03*
%TD*%
D16*
%TO.C,D2*%
X32900000Y38875000D03*
X32900000Y37125000D03*
%TD*%
D17*
%TO.C,C5*%
X19400000Y31275000D03*
X19400000Y29725000D03*
%TD*%
D18*
%TO.C,C2*%
X8600000Y28825000D03*
X8600000Y30375000D03*
%TD*%
D11*
%TO.C,R4*%
X7400000Y34587500D03*
X7400000Y36412500D03*
%TD*%
D17*
%TO.C,C3*%
X17900000Y31275000D03*
X17900000Y29725000D03*
%TD*%
D19*
%TO.C,D1*%
X1900000Y35125000D03*
X1900000Y36875000D03*
%TD*%
D20*
%TO.C,U7*%
X33670000Y10600000D03*
X32400000Y10600000D03*
X31130000Y10600000D03*
X29860000Y10600000D03*
X29860000Y5200000D03*
X31130000Y5200000D03*
X32400000Y5200000D03*
X33670000Y5200000D03*
D21*
X31765000Y7900000D03*
%TD*%
D14*
%TO.C,C7*%
X17675000Y14700000D03*
X16125000Y14700000D03*
%TD*%
D22*
%TO.C,C6*%
X13450000Y30200000D03*
X15000000Y30200000D03*
%TD*%
D11*
%TO.C,R11*%
X31400000Y37087500D03*
X31400000Y38912500D03*
%TD*%
D23*
%TO.C,R3*%
X1487500Y30900000D03*
X3312500Y30900000D03*
%TD*%
D11*
%TO.C,R6*%
X32900000Y33787500D03*
X32900000Y35612500D03*
%TD*%
D23*
%TO.C,R8*%
X2487500Y38500000D03*
X4312500Y38500000D03*
%TD*%
D24*
%TO.C,U3*%
X23150000Y29800000D03*
X23650000Y29800000D03*
X24150000Y29800000D03*
X24650000Y29800000D03*
X25150000Y29800000D03*
X25650000Y29800000D03*
X26150000Y29800000D03*
X26650000Y29800000D03*
X27150000Y29800000D03*
X27650000Y29800000D03*
X27650000Y34200000D03*
X27150000Y34200000D03*
X26650000Y34200000D03*
X26150000Y34200000D03*
X25650000Y34200000D03*
X25150000Y34200000D03*
X24650000Y34200000D03*
X24150000Y34200000D03*
X23650000Y34200000D03*
X23150000Y34200000D03*
%TD*%
D15*
%TO.C,U4*%
X16600000Y16800000D03*
X17550000Y16800000D03*
X18500000Y16800000D03*
X18500000Y19075000D03*
X16600000Y19075000D03*
%TD*%
D10*
%TO.C,R10*%
X16812500Y35500000D03*
X14987500Y35500000D03*
%TD*%
D17*
%TO.C,C4*%
X24200000Y27175000D03*
X24200000Y25625000D03*
%TD*%
D20*
%TO.C,U5*%
X28100000Y10600000D03*
X26830000Y10600000D03*
X25560000Y10600000D03*
X24290000Y10600000D03*
X24290000Y5200000D03*
X25560000Y5200000D03*
X26830000Y5200000D03*
X28100000Y5200000D03*
D21*
X26195000Y7900000D03*
%TD*%
D25*
%TO.C,D5*%
X12150000Y22000000D03*
X8850000Y22000000D03*
%TD*%
D26*
%TO.C,U1*%
X5850000Y36637500D03*
X4900000Y36637500D03*
X3950000Y36637500D03*
X3950000Y34362500D03*
X4900000Y34362500D03*
X5850000Y34362500D03*
%TD*%
D20*
%TO.C,U6*%
X22065000Y10532500D03*
X20795000Y10532500D03*
X19525000Y10532500D03*
X18255000Y10532500D03*
X18255000Y5132500D03*
X19525000Y5132500D03*
X20795000Y5132500D03*
X22065000Y5132500D03*
D21*
X20160000Y7832500D03*
%TD*%
D16*
%TO.C,D3*%
X34500000Y38875000D03*
X34500000Y37125000D03*
%TD*%
M02*
