M48
; DRILL file {KiCad 9.0.6} date 2026-04-29T22:33:52-0400
; FORMAT={-:-/ absolute / metric / decimal}
; #@! TF.CreationDate,2026-04-29T22:33:52-04:00
; #@! TF.GenerationSoftware,Kicad,Pcbnew,9.0.6
; #@! TF.FileFunction,Plated,1,2,PTH
FMAT,2
METRIC
; #@! TA.AperFunction,Plated,PTH,ViaDrill
T1C0.300
; #@! TA.AperFunction,Plated,PTH,ComponentDrill
T2C0.600
; #@! TA.AperFunction,Plated,PTH,ComponentDrill
T3C0.800
; #@! TA.AperFunction,Plated,PTH,ComponentDrill
T4C1.000
; #@! TA.AperFunction,Plated,PTH,ComponentDrill
T5C1.020
; #@! TA.AperFunction,Plated,PTH,ComponentDrill
T6C1.170
; #@! TA.AperFunction,Plated,PTH,ComponentDrill
T7C1.300
%
G90
G05
T1
X4.0Y14.7
X4.8Y17.7
X4.9Y32.4
X5.8Y38.5
X6.4Y30.0
X6.6Y26.1
X6.6Y25.1
X7.5Y30.9
X7.7Y18.4
X7.7Y13.6
X8.6Y31.8
X9.9Y33.1
X11.85Y28.8
X13.4Y12.8
X13.75Y21.45
X14.225Y23.925
X15.2Y20.0
X16.625Y32.55
X16.8Y34.05
X17.25Y10.9
X17.26Y8.1
X17.5Y20.1
X17.9Y27.8
X19.4Y27.9
X19.55Y25.1
X19.96Y3.5
X20.7Y33.45
X20.7Y31.2
X20.9Y27.0
X20.9Y25.9
X21.2Y35.7
X22.2Y33.1
X22.2Y17.0
X22.4Y34.2
X23.46Y8.0
X23.85Y21.95
X24.1Y32.5
X24.2Y24.5
X24.3Y12.25
X24.8Y32.9
X25.65Y31.45
X25.71Y35.7
X26.1Y28.6
X26.305Y3.845
X27.1Y30.9
X27.5Y35.5
X28.2Y29.8
X28.2Y25.3
X29.0Y32.3
X29.06Y7.9
X29.35Y12.3
X29.5Y25.3
X29.8Y32.7
X32.36Y3.7
X32.8Y30.6
X34.3Y31.2
X36.8Y33.9
X36.887Y38.913
X37.3Y21.8
X39.0Y31.4
X42.1Y28.8
X43.0Y23.3
X43.5Y12.2
X43.529Y9.621
X44.4Y21.8
X45.7Y32.1
X51.575Y22.875
X51.6Y28.8
T3
X10.75Y9.55
X13.25Y9.55
X58.0Y16.5
X58.0Y14.5
X58.0Y12.5
T4
X14.9Y38.5
X17.44Y38.5
X18.92Y2.0
X19.98Y38.5
X21.46Y2.0
X22.52Y38.5
X25.06Y38.5
X25.42Y2.0
X27.6Y38.5
X27.96Y2.0
X32.495Y1.9
X35.035Y1.9
X40.0Y16.04
X40.0Y13.5
X40.0Y10.96
X40.0Y8.42
X40.0Y5.88
X51.96Y18.0
X51.96Y15.46
X51.96Y12.92
X51.96Y10.38
X51.96Y7.84
X51.96Y5.3
X54.5Y18.0
X54.5Y15.46
X54.5Y12.92
X54.5Y10.38
X54.5Y7.84
X54.5Y5.3
T5
X4.5Y28.8
X56.5Y28.8
T6
X2.75Y28.8
X58.25Y28.8
T7
X58.0Y18.6
X58.0Y10.4
T2
G00X1.345Y20.32
M15
G01X2.145Y20.32
M16
G05
G00X1.345Y11.68
M15
G01X2.145Y11.68
M16
G05
G00X5.375Y20.32
M15
G01X6.475Y20.32
M16
G05
G00X5.375Y11.68
M15
G01X6.475Y11.68
M16
G05
M30
